<svg xmlns="http://www.w3.org/2000/svg" viewBox="0 0 512 512" width="512" height="512">
  <style>:root{color:#16160f} @media (prefers-color-scheme: dark){:root{color:#fafafa}}</style>
  <rect x="84" y="84" width="344" height="344" fill="none" stroke="currentColor" stroke-width="26"/>
  <g transform="translate(256.0 256.0) scale(0.08755) translate(-1535.81 746.50)"><path d="M735 -831Q856 -831 908.5 -876.0Q961 -921 961 -1024Q961 -1126 908.5 -1170.0Q856 -1214 735 -1214H573V-831ZM573 -565V0H188V-1493H776Q1071 -1493 1208.5 -1394.0Q1346 -1295 1346 -1081Q1346 -933 1274.5 -838.0Q1203 -743 1059 -698Q1138 -680 1200.5 -616.5Q1263 -553 1327 -424L1536 0H1126L944 -371Q889 -483 832.5 -524.0Q776 -565 682 -565ZM1654.6100000000001 -1493H2293.61Q2578.61 -1493 2731.11 -1366.5Q2883.61 -1240 2883.61 -1006Q2883.61 -771 2731.11 -644.5Q2578.61 -518 2293.61 -518H2039.6100000000001V0H1654.6100000000001ZM2039.6100000000001 -1214V-797H2252.61Q2364.61 -797 2425.61 -851.5Q2486.61 -906 2486.61 -1006Q2486.61 -1106 2425.61 -1160.0Q2364.61 -1214 2252.61 -1214Z" fill="currentColor"/></g>
</svg>
